<svg width="103" height="150" viewBox="0 0 103 150" fill="none" xmlns="http://www.w3.org/2000/svg">
<path fill-rule="evenodd" clip-rule="evenodd" d="M23.961 4.75706C7.46853 13.2005 -0.0300353 28.1839 9.03983e-05 52.6378C0.0384322 85.8883 11.4616 100.423 45.0983 110.016C53.5965 112.44 61.2457 116.239 62.0974 118.46C66.9422 131.082 38.1036 135.9 28.7674 124.028C24.8018 118.986 20.7759 117.181 13.5046 117.181C4.49156 117.181 3.62887 117.857 3.62887 124.92C3.62887 132.761 10.555 141.103 21.9344 146.964C30.7256 151.491 62.6753 150.809 72.1868 145.891C87.5756 137.932 92.9023 118.002 83.0047 105.418L77.478 98.3933L84.3001 88.3422C88.0521 82.8128 91.9191 74.0407 92.8941 68.8509C94.8413 58.4685 93.1379 33.6558 89.9637 26.1189C88.3369 22.2628 89.3393 21.3262 95.0823 21.3262C101.417 21.3262 102.222 20.2444 102.222 11.7407V2.15529H88.9422C81.6381 2.15529 66.5396 1.45419 55.3931 0.596972C38.2515 -0.720343 33.4013 -0.0767479 23.961 4.75706ZM58.2961 24.0074C61.0512 25.4808 64.6663 30.594 66.3315 35.3703C76.0018 63.1133 60.98 92.0641 40.878 84.4204C29.8684 80.2357 25.5385 71.1103 25.5385 52.0873C25.5385 37.3531 26.5409 33.7681 32.262 28.0497C39.2676 21.0414 49.7212 19.4173 58.2961 24.0074Z" fill="#31C74D"/>
</svg>
